<svg width="25" height="25" viewBox="0 0 25 25" fill="none" xmlns="http://www.w3.org/2000/svg">
<mask id="mask0_3_13" style="mask-type:alpha" maskUnits="userSpaceOnUse" x="0" y="0" width="25" height="25">
<rect x="0.268436" y="0.743362" width="24" height="24" fill="#D9D9D9"/>
</mask>
<g mask="url(#mask0_3_13)">
<path d="M6.26844 21.7434C5.51844 21.7434 4.77677 21.56 4.04344 21.1934C3.3101 20.8267 2.71844 20.3434 2.26844 19.7434C2.70177 19.7434 3.14344 19.5725 3.59344 19.2309C4.04344 18.8892 4.26844 18.3934 4.26844 17.7434C4.26844 16.91 4.5601 16.2017 5.14344 15.6184C5.72677 15.035 6.4351 14.7434 7.26844 14.7434C8.10177 14.7434 8.8101 15.035 9.39344 15.6184C9.97677 16.2017 10.2684 16.91 10.2684 17.7434C10.2684 18.8434 9.87677 19.785 9.09344 20.5684C8.3101 21.3517 7.36844 21.7434 6.26844 21.7434ZM6.26844 19.7434C6.81844 19.7434 7.28927 19.5475 7.68094 19.1559C8.0726 18.7642 8.26844 18.2934 8.26844 17.7434C8.26844 17.46 8.1726 17.2225 7.98094 17.0309C7.78927 16.8392 7.55177 16.7434 7.26844 16.7434C6.9851 16.7434 6.7476 16.8392 6.55594 17.0309C6.36427 17.2225 6.26844 17.46 6.26844 17.7434C6.26844 18.1267 6.2226 18.4767 6.13094 18.7934C6.03927 19.11 5.91844 19.41 5.76844 19.6934C5.85177 19.7267 5.9351 19.7434 6.01844 19.7434H6.26844ZM12.0184 15.7434L9.26844 12.9934L18.2184 4.04336C18.4018 3.86003 18.6309 3.7642 18.9059 3.75586C19.1809 3.74753 19.4184 3.84336 19.6184 4.04336L20.9684 5.39336C21.1684 5.59336 21.2684 5.8267 21.2684 6.09336C21.2684 6.36003 21.1684 6.59336 20.9684 6.79336L12.0184 15.7434Z" fill="#5C60EA"/>
</g>
</svg>
